<svg xmlns="http://www.w3.org/2000/svg" xmlns:xlink="http://www.w3.org/1999/xlink" width="5000" zoomAndPan="magnify" viewBox="0 0 3750 3749.999967" height="5000" preserveAspectRatio="xMidYMid meet" version="1.0"><defs><clipPath id="c6f752e654"><path d="M 0 2499.902344 L 2500.195312 2499.902344 L 2500.195312 3750 L 0 3750 Z M 0 2499.902344 " clip-rule="nonzero"/></clipPath><clipPath id="9323dcb18a"><path d="M 75 2499.902344 L 2425.035156 2499.902344 C 2466.457031 2499.902344 2500.035156 2533.480469 2500.035156 2574.902344 L 2500.035156 3675 C 2500.035156 3716.421875 2466.457031 3750 2425.035156 3750 L 75 3750 C 33.578125 3750 0 3716.421875 0 3675 L 0 2574.902344 C 0 2533.480469 33.578125 2499.902344 75 2499.902344 Z M 75 2499.902344 " clip-rule="nonzero"/></clipPath><clipPath id="9938fc0569"><path d="M 2499.929688 0 L 3750 0 L 3750 3750 L 2499.929688 3750 Z M 2499.929688 0 " clip-rule="nonzero"/></clipPath><clipPath id="f729a6b908"><path d="M 2574.929688 0 L 3675 0 C 3716.421875 0 3750 33.578125 3750 75 L 3750 3675 C 3750 3716.421875 3716.421875 3750 3675 3750 L 2574.929688 3750 C 2533.507812 3750 2499.929688 3716.421875 2499.929688 3675 L 2499.929688 75 C 2499.929688 33.578125 2533.507812 0 2574.929688 0 Z M 2574.929688 0 " clip-rule="nonzero"/></clipPath><clipPath id="55c303a395"><path d="M 1249.964844 1249.804688 L 3749.894531 1249.804688 L 3749.894531 3750 L 1249.964844 3750 Z M 1249.964844 1249.804688 " clip-rule="nonzero"/></clipPath><clipPath id="ef8d5b874f"><path d="M 1324.964844 1249.804688 L 3674.894531 1249.804688 C 3716.316406 1249.804688 3749.894531 1283.382812 3749.894531 1324.804688 L 3749.894531 3675 C 3749.894531 3716.421875 3716.316406 3750 3674.894531 3750 L 1324.964844 3750 C 1283.542969 3750 1249.964844 3716.421875 1249.964844 3675 L 1249.964844 1324.804688 C 1249.964844 1283.382812 1283.542969 1249.804688 1324.964844 1249.804688 Z M 1324.964844 1249.804688 " clip-rule="nonzero"/></clipPath></defs><g clip-path="url(#c6f752e654)"><g clip-path="url(#9323dcb18a)"><path fill="#0e85b5" d="M 0 2499.902344 L 2500.195312 2499.902344 L 2500.195312 3750 L 0 3750 Z M 0 2499.902344 " fill-opacity="1" fill-rule="nonzero"/></g></g><g clip-path="url(#9938fc0569)"><g clip-path="url(#f729a6b908)"><path fill="#4bbce9" d="M 2499.929688 0 L 3750 0 L 3750 3750.207031 L 2499.929688 3750.207031 Z M 2499.929688 0 " fill-opacity="1" fill-rule="nonzero"/></g></g><g clip-path="url(#55c303a395)"><g clip-path="url(#ef8d5b874f)"><path fill="#1ba8e0" d="M 1249.964844 1249.804688 L 3749.894531 1249.804688 L 3749.894531 3749.734375 L 1249.964844 3749.734375 Z M 1249.964844 1249.804688 " fill-opacity="1" fill-rule="nonzero"/></g></g></svg>