<svg width="800" height="400" viewBox="0 0 800 400" xmlns="http://www.w3.org/2000/svg">
  <rect width="800" height="400" fill="#f8fafc"/>
  <rect x="50" y="50" width="700" height="300" rx="8" fill="#e2e8f0"/>
  <path d="M200 200 C200 150 250 150 300 150 C350 150 350 100 400 100 C450 100 450 150 500 150 C550 150 600 150 600 200 C600 250 550 250 500 250 L250 250 C200 250 200 250 200 200" fill="#0ea5e9"/>
  <rect x="250" y="180" width="80" height="80" rx="8" fill="#ffffff"/>
  <rect x="360" y="180" width="80" height="80" rx="8" fill="#ffffff"/>
  <rect x="470" y="180" width="80" height="80" rx="8" fill="#ffffff"/>
  <path d="M290 260 L290 300" stroke="#0ea5e9" stroke-width="3" stroke-dasharray="6"/>
  <path d="M400 260 L400 300" stroke="#0ea5e9" stroke-width="3" stroke-dasharray="6"/>
  <path d="M510 260 L510 300" stroke="#0ea5e9" stroke-width="3" stroke-dasharray="6"/>
  <rect x="250" y="300" width="300" height="30" rx="4" fill="#ffffff"/>
</svg>