<svg width="800" height="400" viewBox="0 0 800 400" xmlns="http://www.w3.org/2000/svg">
  <rect width="800" height="400" fill="#f8fafc"/>
  <rect x="50" y="50" width="700" height="300" rx="8" fill="#e2e8f0"/>
  <rect x="80" y="80" width="200" height="240" rx="4" fill="#ffffff"/>
  <rect x="300" y="80" width="200" height="240" rx="4" fill="#ffffff"/>
  <rect x="520" y="80" width="200" height="240" rx="4" fill="#ffffff"/>
  <circle cx="180" cy="140" r="40" fill="#0ea5e9"/>
  <circle cx="400" cy="140" r="40" fill="#0ea5e9"/>
  <circle cx="620" cy="140" r="40" fill="#0ea5e9"/>
  <rect x="100" y="200" width="160" height="12" rx="2" fill="#94a3b8"/>
  <rect x="100" y="220" width="120" height="12" rx="2" fill="#94a3b8"/>
  <rect x="320" y="200" width="160" height="12" rx="2" fill="#94a3b8"/>
  <rect x="320" y="220" width="120" height="12" rx="2" fill="#94a3b8"/>
  <rect x="540" y="200" width="160" height="12" rx="2" fill="#94a3b8"/>
  <rect x="540" y="220" width="120" height="12" rx="2" fill="#94a3b8"/>
</svg>