<svg width="800" height="400" viewBox="0 0 800 400" xmlns="http://www.w3.org/2000/svg">
  <rect width="800" height="400" fill="#f8fafc"/>
  <rect x="50" y="50" width="700" height="300" rx="8" fill="#e2e8f0"/>
  <rect x="80" y="80" width="320" height="120" rx="4" fill="#ffffff"/>
  <rect x="420" y="80" width="300" height="120" rx="4" fill="#ffffff"/>
  <rect x="80" y="220" width="640" height="100" rx="4" fill="#ffffff"/>
  <path d="M100 140 L200 100 L300 160 L400 120" stroke="#0ea5e9" stroke-width="3" fill="none"/>
  <path d="M440 140 L540 120 L640 150 L700 110" stroke="#10b981" stroke-width="3" fill="none"/>
  <rect x="100" y="240" width="100" height="60" rx="4" fill="#0ea5e9"/>
  <rect x="220" y="240" width="100" height="60" rx="4" fill="#10b981"/>
  <rect x="340" y="240" width="100" height="60" rx="4" fill="#6366f1"/>
  <rect x="460" y="240" width="100" height="60" rx="4" fill="#f43f5e"/>
</svg>